<?xml version="1.0" encoding="UTF-8"?> <svg xmlns="http://www.w3.org/2000/svg" xmlns:xlink="http://www.w3.org/1999/xlink" xmlns:xodm="http://www.corel.com/coreldraw/odm/2003" xml:space="preserve" width="400px" height="76px" version="1.1" style="shape-rendering:geometricPrecision; text-rendering:geometricPrecision; image-rendering:optimizeQuality; fill-rule:evenodd; clip-rule:evenodd" viewBox="0 0 400 76"> <defs> <style type="text/css"> .fil0 {fill:#E20613;fill-rule:nonzero} .fil1 {fill:white;fill-rule:nonzero} </style> </defs> <g id="Camada_x0020_1"> <metadata id="CorelCorpID_0Corel-Layer"></metadata> <g id="_1890233986480"> <path class="fil0" d="M397.07 0.06l-358.44 0 -0.01 0c-10.54,0 -21.37,8.51 -24.18,19 0,0.02 0,0.02 0,0.03l-14.3 53.17c-0.57,2.11 0.68,3.8 2.79,3.8l358.44 0c0,0 0.01,0 0.01,0 10.54,0 21.37,-8.51 24.19,-19 0,0 0,-0.01 0,-0.01l14.29 -53.19c0.57,-2.09 -0.68,-3.8 -2.79,-3.8l0 0z"></path> <path class="fil1" d="M323.75 42.54c-1.12,4.57 -5.53,8.88 -9.24,8.88 -2.32,0 -3.22,-1.69 -2.65,-4.02 0.82,-3.37 4.19,-6.16 12.21,-6.16l-0.32 1.3zm5.58 15.49c0.6,-2.99 1.42,-6.27 2.15,-9.03l4.4 -16.37c2.35,-8.71 0.43,-13.6 -11.07,-13.6 -5.3,0 -13.25,1.21 -13.25,1.21l-1.92 7.3 0.83 0c1.89,-0.13 6.93,-0.54 11.38,-0.54 4.44,0 5.29,2.66 4.44,5.8l-0.39 1.45c-11.69,0 -20.79,4.59 -23.4,14.22 -1.64,6.11 0.58,10.4 6.96,10.4 4.65,0 9.32,-2.6 11.98,-6.58l0.07 0c-0.77,1.91 -1.3,3.9 -1.8,5.74l9.62 0 0 0zm-146.68 -15.49c-1.13,4.57 -5.53,8.88 -9.24,8.88 -2.33,0 -3.23,-1.69 -2.66,-4.02 0.83,-3.37 4.21,-6.16 12.22,-6.16l-0.32 1.3zm5.57 15.49c0.6,-2.99 1.42,-6.27 2.17,-9.03l4.4 -16.37c2.34,-8.71 0.43,-13.6 -11.08,-13.6 -5.29,0 -13.26,1.21 -13.26,1.21l-1.9 7.3 0.83 0c1.89,-0.13 6.93,-0.54 11.38,-0.54 4.44,0 5.27,2.66 4.43,5.8l-0.39 1.45c-11.69,0 -20.8,4.59 -23.39,14.22 -1.65,6.11 0.56,10.4 6.96,10.4 4.63,0 9.3,-2.6 11.98,-6.58l0.07 0c-0.79,1.91 -1.32,3.9 -1.81,5.74l9.61 0 0 0zm82.14 -47.52l-9.54 0 -12.77 47.5 9.53 0 12.78 -47.5zm-51.51 0l-9.54 0 -12.77 47.5 9.53 0 12.78 -47.5zm-141.78 25.2c1.84,-5.23 4.86,-8.37 8.08,-8.37 0.95,0 1.71,0.3 2.17,0.84 0.45,0.52 0.64,1.26 0.56,2.15 -0.38,3.67 -3.84,5.56 -10.58,5.72l-0.35 0.02 0.12 -0.36 0 0zm3.38 14.8c-2.73,0 -5.03,-0.9 -5.42,-3.57 -0.12,-0.82 -0.04,-1.39 0.07,-2.27 0.06,-0.51 0.13,-1.03 0.2,-1.55l0.22 0c9.33,-0.28 20.68,-3.02 21.85,-14.38 0.19,-1.9 0.06,-4.57 -1.7,-6.61 -1.69,-1.96 -4.57,-2.95 -8.56,-2.95 -9.22,0 -19.98,9.31 -21.76,26.55 -0.48,4.67 0.19,7.98 2.03,10.1 1.64,1.9 4.41,2.93 8.04,3.05 0.09,0 0.32,0 0.37,0 3.86,-0.04 10.73,-1.74 14.56,-3.32 0,-0.22 -0.13,-6.91 -0.14,-7.47 -2.12,0.8 -7.84,2.42 -9.76,2.42l0 0zm200.35 -14.8c1.83,-5.23 4.86,-8.37 8.09,-8.37 0.94,0 1.69,0.3 2.16,0.84 0.45,0.52 0.64,1.26 0.56,2.15 -0.38,3.67 -3.84,5.56 -10.58,5.72l-0.37 0.02 0.14 -0.36 0 0zm3.38 14.8c-2.73,0 -5.04,-0.9 -5.42,-3.57 -0.12,-0.82 -0.06,-1.39 0.07,-2.27 0.06,-0.51 0.13,-1.03 0.2,-1.55l0.22 0c9.31,-0.28 20.68,-3.02 21.85,-14.38 0.19,-1.9 0.06,-4.57 -1.7,-6.61 -1.7,-1.96 -4.58,-2.95 -8.56,-2.95 -9.22,0 -19.98,9.31 -21.76,26.55 -0.48,4.67 0.19,7.98 2.03,10.1 1.64,1.9 4.41,2.93 8.03,3.05 0.09,0 0.33,0 0.37,0 3.86,-0.04 10.73,-1.74 14.57,-3.32 -0.02,-0.22 -0.13,-6.91 -0.15,-7.47 -2.13,0.8 -7.83,2.42 -9.75,2.42l0 0zm-51.51 -0.08c-1.68,0 -3.11,-0.38 -3.89,-1.19 -1.52,-1.61 -1.87,-4.54 -0.31,-10.38 2.29,-8.52 5.71,-11.56 10.53,-11.56 1.86,0 6.36,1.4 7.77,2.13 0.19,-0.34 3.91,-7.29 4.07,-7.59 -2.37,-1.41 -7.84,-2.89 -11.18,-2.89 -9.95,0 -17.37,7.16 -20.86,20.13 -2.35,8.77 -2.17,14.21 0.59,17.11 1.72,1.81 4.53,2.69 8.62,2.69 3.58,0 10.14,-1.72 13.79,-3.32 0,-0.22 0.03,-6.98 0.02,-7.54 -1.99,0.8 -7.36,2.41 -9.15,2.41l0 0zm-71.65 -30.39l-6.81 0 2.57 -9.53 -8.9 0c-0.97,2.85 -3.08,9.15 -3.08,9.15l-6.99 26.03c-0.66,2.57 -1.02,4.71 -1.06,6.46 -0.04,1.97 0.36,3.38 1.15,4.45 1.14,1.56 3.25,2.24 6.41,2.24 2.08,0 5.64,-0.41 8.01,-1.05 0.05,-0.29 0.66,-7.08 0.81,-7.77 -0.98,0.24 -2.14,0.47 -3.63,0.47 -1.12,0 -1.79,-0.23 -2.17,-0.76 -0.26,-0.35 -0.38,-0.82 -0.37,-1.5 0,-0.71 0.18,-1.63 0.51,-2.85l4.74 -17.77 6.72 0 2.09 -7.57 0 0zm-63.7 37.97l9.53 0 8.18 -30.43c1.17,-0.06 3.34,-0.32 4.09,-0.32 4.42,0 5.13,1.51 4.06,5.51l-6.78 25.24 9.53 0 6.86 -25.52c0.61,-2.2 0.93,-4.06 0.94,-5.65 0.03,-1.86 -0.38,-3.34 -1.21,-4.47 -1.62,-2.25 -5.03,-3.34 -10.39,-3.34 -3.68,0 -14.49,0.98 -14.59,0.98l-10.22 38 0 0zm240.32 0l9.53 0 8.18 -30.43c1.17,-0.06 3.34,-0.32 4.09,-0.32 4.42,0 5.13,1.51 4.05,5.51l-6.78 25.24 9.53 0 6.87 -25.52c0.61,-2.2 0.92,-4.06 0.94,-5.65 0.02,-1.86 -0.39,-3.34 -1.22,-4.47 -1.62,-2.25 -5.02,-3.34 -10.38,-3.34 -3.68,0 -14.49,0.98 -14.59,0.98l-10.22 38 0 0zm-302.99 -7.69l2.96 0c6.21,-0.06 10.38,-3.2 12.88,-12.5 3.26,-12.12 -3.74,-12.12 -6.58,-12.12l-2.61 -0.05 -6.65 24.67zm-0.88 -32.26l13.17 0c4.01,0 9.19,0.5 11.93,3.32 3.89,4.05 2.83,10.63 1.23,16.55 -2.38,8.85 -5.86,15.39 -13.52,18.54 -3.86,1.54 -7.96,1.54 -10.29,1.54l-13.26 0 10.74 -39.95 0 0z"></path> </g> </g> </svg> 